<svg xmlns="http://www.w3.org/2000/svg" xmlns:xlink="http://www.w3.org/1999/xlink" width="1280" zoomAndPan="magnify" viewBox="0 0 960 599.999999" height="800" preserveAspectRatio="xMidYMid meet" version="1.0"><defs><g/><clipPath id="25e1414cfb"><path d="M 11.582031 186.148438 L 248.6875 186.148438 L 248.6875 248 L 11.582031 248 Z M 11.582031 186.148438 " clip-rule="nonzero"/></clipPath><clipPath id="6eec8dc928"><path d="M 210 333 L 248.6875 333 L 248.6875 360 L 210 360 Z M 210 333 " clip-rule="nonzero"/></clipPath><clipPath id="09dbba95a9"><path d="M 85 272 L 205 272 L 205 413.617188 L 85 413.617188 Z M 85 272 " clip-rule="nonzero"/></clipPath><clipPath id="b607438589"><path d="M 11.582031 260 L 110 260 L 110 360 L 11.582031 360 Z M 11.582031 260 " clip-rule="nonzero"/></clipPath></defs><g clip-path="url(#25e1414cfb)"><path fill="#000000" d="M 235.628906 186.148438 C 229.710938 186.148438 224.902344 190.027344 223.238281 195.386719 L 215.285156 195.386719 C 194.023438 195.386719 176.457031 211.648438 174.792969 232.714844 C 168.875 237.332031 161.476562 239.921875 153.710938 239.734375 C 147.425781 235.300781 140.214844 232.898438 132.445312 232.34375 C 131.152344 232.34375 129.671875 232.34375 128.378906 232.34375 C 120.613281 232.714844 113.402344 235.300781 107.113281 239.734375 C 99.347656 239.921875 91.953125 237.332031 86.035156 232.714844 C 84 211.648438 66.433594 195.386719 45.167969 195.386719 L 37.21875 195.386719 C 35.554688 190.027344 30.746094 186.148438 24.828125 186.148438 C 17.617188 186.148438 11.886719 191.875 11.886719 199.082031 C 11.886719 206.289062 17.617188 212.015625 24.828125 212.015625 C 30.746094 212.015625 35.554688 208.136719 37.21875 202.777344 L 45.167969 202.777344 C 63.105469 202.777344 77.714844 216.820312 78.453125 234.746094 C 78.453125 235.855469 79.007812 236.777344 79.746094 237.332031 C 87.699219 244.171875 97.867188 247.679688 108.222656 247.125 C 108.777344 247.125 109.332031 246.941406 109.703125 246.757812 C 109.886719 246.574219 110.074219 246.574219 110.257812 246.386719 C 115.433594 242.507812 121.722656 240.105469 128.195312 239.921875 C 128.195312 239.921875 128.378906 239.921875 128.378906 239.921875 C 129.488281 239.921875 130.597656 239.921875 131.707031 239.921875 C 131.707031 239.921875 131.707031 239.921875 131.890625 239.921875 C 138.550781 240.289062 144.835938 242.507812 150.011719 246.386719 C 150.382812 246.757812 150.9375 246.941406 151.492188 247.125 C 151.675781 247.125 151.863281 247.125 152.046875 247.125 C 152.785156 247.125 153.527344 247.125 154.082031 247.125 C 163.882812 247.125 173.128906 243.617188 180.523438 237.332031 C 181.449219 236.59375 181.816406 235.484375 181.816406 234.375 C 182.742188 216.636719 197.164062 202.960938 215.101562 202.960938 L 223.054688 202.960938 C 224.71875 208.320312 229.523438 212.203125 235.441406 212.203125 C 242.652344 212.203125 248.386719 206.472656 248.386719 199.265625 C 248.386719 192.058594 242.839844 186.148438 235.628906 186.148438 Z M 24.828125 204.625 C 21.683594 204.625 19.28125 202.222656 19.28125 199.082031 C 19.28125 195.941406 21.683594 193.539062 24.828125 193.539062 C 27.972656 193.539062 30.375 195.941406 30.375 199.082031 C 30.375 202.222656 27.972656 204.625 24.828125 204.625 Z M 235.628906 204.625 C 232.484375 204.625 230.078125 202.222656 230.078125 199.082031 C 230.078125 195.941406 232.484375 193.539062 235.628906 193.539062 C 238.769531 193.539062 241.175781 195.941406 241.175781 199.082031 C 241.175781 202.222656 238.769531 204.625 235.628906 204.625 Z M 235.628906 204.625 " fill-opacity="1" fill-rule="nonzero"/></g><path fill="#000000" d="M 167.394531 289.441406 C 169.242188 285.5625 170.355469 281.128906 170.722656 276.691406 L 204.746094 276.691406 C 206.410156 282.050781 211.21875 285.933594 217.136719 285.933594 C 224.347656 285.933594 230.078125 280.203125 230.078125 272.996094 C 230.078125 265.789062 224.347656 260.0625 217.136719 260.0625 C 211.21875 260.0625 206.410156 263.941406 204.746094 269.300781 L 163.511719 269.300781 L 163.511719 272.996094 C 163.511719 279.464844 161.664062 285.5625 158.519531 290.550781 C 159.257812 290.734375 160 291.105469 160.554688 291.476562 C 162.773438 290.367188 164.992188 289.8125 167.394531 289.441406 Z M 217.136719 267.453125 C 220.28125 267.453125 222.683594 269.855469 222.683594 272.996094 C 222.683594 276.136719 220.28125 278.539062 217.136719 278.539062 C 213.992188 278.539062 211.589844 276.136719 211.589844 272.996094 C 211.589844 269.855469 213.992188 267.453125 217.136719 267.453125 Z M 217.136719 267.453125 " fill-opacity="1" fill-rule="nonzero"/><g clip-path="url(#6eec8dc928)"><path fill="#000000" d="M 235.628906 333.976562 C 229.710938 333.976562 224.902344 337.855469 223.238281 343.214844 L 215.285156 343.214844 C 213.808594 343.214844 212.144531 343.03125 210.664062 342.847656 L 210.292969 350.238281 C 211.957031 350.421875 213.4375 350.605469 215.101562 350.605469 L 223.054688 350.605469 C 224.71875 355.964844 229.523438 359.847656 235.441406 359.847656 C 242.652344 359.847656 248.386719 354.117188 248.386719 346.910156 C 248.386719 339.703125 242.839844 333.976562 235.628906 333.976562 Z M 235.628906 352.453125 C 232.484375 352.453125 230.078125 350.050781 230.078125 346.910156 C 230.078125 343.769531 232.484375 341.367188 235.628906 341.367188 C 238.769531 341.367188 241.175781 343.769531 241.175781 346.910156 C 241.175781 350.050781 238.769531 352.453125 235.628906 352.453125 Z M 235.628906 352.453125 " fill-opacity="1" fill-rule="nonzero"/></g><g clip-path="url(#09dbba95a9)"><path fill="#000000" d="M 150.753906 296.648438 C 149.089844 296.648438 147.609375 296.835938 146.128906 297.386719 L 146.128906 287.78125 C 146.128906 279.648438 139.472656 272.996094 131.335938 272.996094 C 123.203125 272.996094 116.542969 279.648438 116.542969 287.78125 L 116.542969 338.597656 L 111.921875 333.050781 C 109.148438 329.542969 104.894531 327.507812 100.457031 327.507812 C 96.945312 327.507812 93.617188 328.800781 91.027344 331.019531 C 84.925781 336.195312 84 345.433594 89.175781 351.714844 L 117.097656 386.085938 L 117.652344 389.042969 C 119.871094 403.269531 131.890625 413.617188 146.316406 413.617188 L 172.574219 413.617188 C 188.289062 413.617188 201.046875 401.238281 201.605469 385.53125 L 204.191406 323.074219 C 204.378906 319.007812 202.898438 315.128906 200.125 312.355469 C 197.351562 309.398438 193.652344 307.921875 189.585938 307.921875 C 187.921875 307.921875 186.257812 308.289062 184.777344 308.84375 C 183.480469 302.007812 177.566406 296.835938 170.539062 296.835938 L 170.355469 296.835938 C 166.65625 296.835938 163.328125 298.128906 160.738281 300.53125 C 158.148438 298.3125 154.820312 296.835938 151.121094 296.835938 L 150.753906 296.835938 Z M 158.148438 311.246094 L 158.148438 333.976562 L 162.957031 333.605469 L 162.957031 311.246094 C 162.957031 307.183594 166.101562 304.039062 170.167969 304.039062 L 170.355469 304.039062 C 174.238281 304.039062 177.566406 307.183594 177.566406 311.246094 L 177.566406 332.683594 L 182.371094 332.3125 L 182.371094 322.335938 C 182.371094 318.269531 185.515625 315.128906 189.585938 315.128906 C 193.652344 315.128906 196.980469 318.453125 196.796875 322.519531 L 194.207031 384.976562 C 193.835938 396.617188 184.222656 406.042969 172.574219 406.042969 L 146.128906 406.042969 C 135.40625 406.042969 126.34375 398.28125 124.679688 387.75 L 123.941406 382.757812 L 94.910156 346.910156 C 92.320312 343.769531 92.875 339.148438 95.835938 336.5625 C 97.128906 335.453125 98.976562 334.898438 100.640625 334.898438 C 102.859375 334.898438 104.894531 335.824219 106.375 337.671875 L 124.125 359.476562 L 124.125 287.78125 C 124.125 283.714844 127.453125 280.386719 131.523438 280.386719 C 135.589844 280.386719 138.917969 283.714844 138.917969 287.78125 L 138.917969 335.269531 L 143.726562 334.898438 L 143.726562 311.246094 C 143.726562 307.183594 146.871094 304.039062 150.9375 304.039062 L 151.121094 304.039062 C 154.820312 304.039062 158.148438 307.183594 158.148438 311.246094 Z M 158.148438 311.246094 " fill-opacity="1" fill-rule="nonzero"/></g><path fill="#000000" d="M 130.226562 247.125 C 115.988281 247.125 104.339844 258.769531 104.339844 272.996094 C 104.339844 278.539062 106.1875 283.714844 109.148438 287.964844 L 109.148438 287.59375 C 109.148438 283.53125 110.257812 279.832031 112.105469 276.691406 C 111.921875 275.398438 111.738281 274.289062 111.738281 272.8125 C 111.738281 262.648438 120.058594 254.332031 130.226562 254.332031 C 140.398438 254.332031 148.71875 262.648438 148.71875 272.8125 C 148.71875 273.179688 148.71875 273.550781 148.71875 273.921875 C 151.121094 277.0625 152.785156 280.757812 153.339844 284.636719 C 155.191406 281.128906 156.300781 277.0625 156.300781 272.8125 C 156.117188 258.769531 144.464844 247.125 130.226562 247.125 Z M 130.226562 247.125 " fill-opacity="1" fill-rule="nonzero"/><g clip-path="url(#b607438589)"><path fill="#000000" d="M 78.453125 311.800781 C 77.527344 329.542969 63.105469 343.214844 45.167969 343.214844 L 37.21875 343.214844 C 35.554688 337.855469 30.746094 333.976562 24.828125 333.976562 C 17.617188 333.976562 11.886719 339.703125 11.886719 346.910156 C 11.886719 354.117188 17.617188 359.847656 24.828125 359.847656 C 30.746094 359.847656 35.554688 355.964844 37.21875 350.605469 L 45.167969 350.605469 C 66.433594 350.605469 84 334.347656 85.664062 313.28125 C 91.582031 308.660156 98.976562 306.074219 106.746094 306.257812 C 107.300781 306.628906 107.855469 306.996094 108.410156 307.367188 C 108.410156 307.367188 108.59375 307.367188 108.59375 307.550781 C 108.777344 307.738281 108.964844 307.738281 109.148438 307.921875 L 109.148438 298.867188 C 101.75 292.769531 96.945312 283.53125 96.945312 273.179688 L 96.945312 269.484375 L 55.707031 269.484375 C 54.042969 264.125 49.238281 260.246094 43.320312 260.246094 C 36.109375 260.246094 30.375 265.976562 30.375 273.179688 C 30.375 280.386719 36.109375 286.117188 43.320312 286.117188 C 49.238281 286.117188 54.042969 282.234375 55.707031 276.878906 L 89.730469 276.878906 C 90.472656 285.5625 93.984375 293.324219 99.347656 299.605469 C 92.136719 300.898438 85.292969 304.039062 79.5625 308.84375 C 78.824219 309.398438 78.453125 310.507812 78.453125 311.800781 Z M 24.828125 352.453125 C 21.683594 352.453125 19.28125 350.050781 19.28125 346.910156 C 19.28125 343.769531 21.683594 341.367188 24.828125 341.367188 C 27.972656 341.367188 30.375 343.769531 30.375 346.910156 C 30.375 350.050781 27.972656 352.453125 24.828125 352.453125 Z M 43.320312 278.539062 C 40.175781 278.539062 37.773438 276.136719 37.773438 272.996094 C 37.773438 269.855469 40.175781 267.453125 43.320312 267.453125 C 46.464844 267.453125 48.867188 269.855469 48.867188 272.996094 C 48.867188 276.136719 46.464844 278.539062 43.320312 278.539062 Z M 43.320312 278.539062 " fill-opacity="1" fill-rule="nonzero"/></g><g fill="#000000" fill-opacity="1"><g transform="translate(274.601415, 332.570213)"><g><path d="M 31.625 1.015625 C 26.132812 1.015625 20.828125 0.238281 15.703125 -1.3125 C 10.585938 -2.875 6.539062 -4.945312 3.5625 -7.53125 L 8.140625 -17.796875 C 11.046875 -15.484375 14.617188 -13.597656 18.859375 -12.140625 C 23.097656 -10.691406 27.351562 -9.96875 31.625 -9.96875 C 36.90625 -9.96875 40.847656 -10.8125 43.453125 -12.5 C 46.066406 -14.195312 47.375 -16.4375 47.375 -19.21875 C 47.375 -21.25 46.644531 -22.925781 45.1875 -24.25 C 43.726562 -25.570312 41.878906 -26.601562 39.640625 -27.34375 C 37.410156 -28.09375 34.363281 -28.941406 30.5 -29.890625 C 25.082031 -31.179688 20.691406 -32.46875 17.328125 -33.75 C 13.972656 -35.039062 11.09375 -37.054688 8.6875 -39.796875 C 6.28125 -42.546875 5.078125 -46.257812 5.078125 -50.9375 C 5.078125 -54.863281 6.144531 -58.4375 8.28125 -61.65625 C 10.414062 -64.882812 13.632812 -67.445312 17.9375 -69.34375 C 22.25 -71.238281 27.519531 -72.1875 33.75 -72.1875 C 38.09375 -72.1875 42.363281 -71.644531 46.5625 -70.5625 C 50.769531 -69.476562 54.394531 -67.921875 57.4375 -65.890625 L 53.28125 -55.609375 C 50.15625 -57.441406 46.898438 -58.832031 43.515625 -59.78125 C 40.128906 -60.726562 36.84375 -61.203125 33.65625 -61.203125 C 28.4375 -61.203125 24.554688 -60.320312 22.015625 -58.5625 C 19.472656 -56.800781 18.203125 -54.460938 18.203125 -51.546875 C 18.203125 -49.515625 18.929688 -47.851562 20.390625 -46.5625 C 21.847656 -45.28125 23.691406 -44.265625 25.921875 -43.515625 C 28.160156 -42.765625 31.210938 -41.914062 35.078125 -40.96875 C 40.359375 -39.75 44.691406 -38.476562 48.078125 -37.15625 C 51.472656 -35.832031 54.375 -33.816406 56.78125 -31.109375 C 59.1875 -28.398438 60.390625 -24.738281 60.390625 -20.125 C 60.390625 -16.195312 59.320312 -12.640625 57.1875 -9.453125 C 55.050781 -6.265625 51.8125 -3.722656 47.46875 -1.828125 C 43.132812 0.0664062 37.851562 1.015625 31.625 1.015625 Z M 31.625 1.015625 "/></g></g></g><g fill="#000000" fill-opacity="1"><g transform="translate(338.53054, 332.570213)"><g><path d="M 30.5 -23.28125 L 21.046875 -14.328125 L 21.046875 0 L 8.34375 0 L 8.34375 -75.4375 L 21.046875 -75.4375 L 21.046875 -29.890625 L 47.375 -54.296875 L 62.625 -54.296875 L 39.953125 -31.515625 L 64.765625 0 L 49.3125 0 Z M 30.5 -23.28125 "/></g></g></g><g fill="#000000" fill-opacity="1"><g transform="translate(403.171129, 332.570213)"><g><path d="M 8.34375 -54.296875 L 21.046875 -54.296875 L 21.046875 0 L 8.34375 0 Z M 14.75 -63.234375 C 12.445312 -63.234375 10.515625 -63.960938 8.953125 -65.421875 C 7.390625 -66.878906 6.609375 -68.691406 6.609375 -70.859375 C 6.609375 -73.035156 7.390625 -74.847656 8.953125 -76.296875 C 10.515625 -77.753906 12.445312 -78.484375 14.75 -78.484375 C 17.050781 -78.484375 18.976562 -77.789062 20.53125 -76.40625 C 22.09375 -75.019531 22.875 -73.273438 22.875 -71.171875 C 22.875 -68.929688 22.113281 -67.046875 20.59375 -65.515625 C 19.070312 -63.992188 17.125 -63.234375 14.75 -63.234375 Z M 14.75 -63.234375 "/></g></g></g><g fill="#000000" fill-opacity="1"><g transform="translate(432.543966, 332.570213)"><g><path d="M 8.34375 -75.4375 L 21.046875 -75.4375 L 21.046875 0 L 8.34375 0 Z M 8.34375 -75.4375 "/></g></g></g><g fill="#000000" fill-opacity="1"><g transform="translate(461.916803, 332.570213)"><g><path d="M 8.34375 -75.4375 L 21.046875 -75.4375 L 21.046875 0 L 8.34375 0 Z M 8.34375 -75.4375 "/></g></g></g><g fill="#000000" fill-opacity="1"><g transform="translate(491.28964, 332.570213)"><g><path d="M 42.5 1.015625 C 35.3125 1.015625 28.816406 -0.554688 23.015625 -3.703125 C 17.222656 -6.859375 12.679688 -11.210938 9.390625 -16.765625 C 6.109375 -22.328125 4.46875 -28.597656 4.46875 -35.578125 C 4.46875 -42.566406 6.128906 -48.835938 9.453125 -54.390625 C 12.773438 -59.953125 17.332031 -64.304688 23.125 -67.453125 C 28.925781 -70.609375 35.414062 -72.1875 42.59375 -72.1875 C 48.425781 -72.1875 53.75 -71.171875 58.5625 -69.140625 C 63.375 -67.109375 67.441406 -64.160156 70.765625 -60.296875 L 62.21875 -52.265625 C 57.070312 -57.816406 50.734375 -60.59375 43.203125 -60.59375 C 38.328125 -60.59375 33.957031 -59.523438 30.09375 -57.390625 C 26.226562 -55.253906 23.210938 -52.285156 21.046875 -48.484375 C 18.878906 -44.691406 17.796875 -40.390625 17.796875 -35.578125 C 17.796875 -30.765625 18.878906 -26.460938 21.046875 -22.671875 C 23.210938 -18.878906 26.226562 -15.914062 30.09375 -13.78125 C 33.957031 -11.644531 38.328125 -10.578125 43.203125 -10.578125 C 50.734375 -10.578125 57.070312 -13.390625 62.21875 -19.015625 L 70.765625 -10.875 C 67.441406 -7.007812 63.359375 -4.0625 58.515625 -2.03125 C 53.671875 0 48.332031 1.015625 42.5 1.015625 Z M 42.5 1.015625 "/></g></g></g><g fill="#000000" fill-opacity="1"><g transform="translate(565.179133, 332.570213)"><g><path d="M 32.734375 0.71875 C 27.242188 0.71875 22.296875 -0.46875 17.890625 -2.84375 C 13.484375 -5.21875 10.039062 -8.519531 7.5625 -12.75 C 5.09375 -16.988281 3.859375 -21.785156 3.859375 -27.140625 C 3.859375 -32.492188 5.09375 -37.269531 7.5625 -41.46875 C 10.039062 -45.675781 13.484375 -48.96875 17.890625 -51.34375 C 22.296875 -53.71875 27.242188 -54.90625 32.734375 -54.90625 C 38.296875 -54.90625 43.28125 -53.71875 47.6875 -51.34375 C 52.09375 -48.96875 55.53125 -45.675781 58 -41.46875 C 60.476562 -37.269531 61.71875 -32.492188 61.71875 -27.140625 C 61.71875 -21.785156 60.476562 -16.988281 58 -12.75 C 55.53125 -8.519531 52.09375 -5.21875 47.6875 -2.84375 C 43.28125 -0.46875 38.296875 0.71875 32.734375 0.71875 Z M 32.734375 -10.171875 C 37.410156 -10.171875 41.273438 -11.726562 44.328125 -14.84375 C 47.378906 -17.957031 48.90625 -22.054688 48.90625 -27.140625 C 48.90625 -32.222656 47.378906 -36.320312 44.328125 -39.4375 C 41.273438 -42.5625 37.410156 -44.125 32.734375 -44.125 C 28.054688 -44.125 24.207031 -42.5625 21.1875 -39.4375 C 18.175781 -36.320312 16.671875 -32.222656 16.671875 -27.140625 C 16.671875 -22.054688 18.175781 -17.957031 21.1875 -14.84375 C 24.207031 -11.726562 28.054688 -10.171875 32.734375 -10.171875 Z M 32.734375 -10.171875 "/></g></g></g><g fill="#000000" fill-opacity="1"><g transform="translate(630.734454, 332.570213)"><g><path d="M 39.140625 -54.90625 C 45.984375 -54.90625 51.472656 -52.90625 55.609375 -48.90625 C 59.742188 -44.90625 61.8125 -38.972656 61.8125 -31.109375 L 61.8125 0 L 49.109375 0 L 49.109375 -29.484375 C 49.109375 -34.234375 47.988281 -37.8125 45.75 -40.21875 C 43.507812 -42.625 40.320312 -43.828125 36.1875 -43.828125 C 31.519531 -43.828125 27.828125 -42.414062 25.109375 -39.59375 C 22.398438 -36.78125 21.046875 -32.734375 21.046875 -27.453125 L 21.046875 0 L 8.34375 0 L 8.34375 -54.296875 L 20.4375 -54.296875 L 20.4375 -47.28125 C 22.539062 -49.789062 25.179688 -51.6875 28.359375 -52.96875 C 31.546875 -54.257812 35.140625 -54.90625 39.140625 -54.90625 Z M 39.140625 -54.90625 "/></g></g></g><g fill="#000000" fill-opacity="1"><g transform="translate(700.355228, 332.570213)"><g><path d="M 39.140625 -54.90625 C 45.984375 -54.90625 51.472656 -52.90625 55.609375 -48.90625 C 59.742188 -44.90625 61.8125 -38.972656 61.8125 -31.109375 L 61.8125 0 L 49.109375 0 L 49.109375 -29.484375 C 49.109375 -34.234375 47.988281 -37.8125 45.75 -40.21875 C 43.507812 -42.625 40.320312 -43.828125 36.1875 -43.828125 C 31.519531 -43.828125 27.828125 -42.414062 25.109375 -39.59375 C 22.398438 -36.78125 21.046875 -32.734375 21.046875 -27.453125 L 21.046875 0 L 8.34375 0 L 8.34375 -54.296875 L 20.4375 -54.296875 L 20.4375 -47.28125 C 22.539062 -49.789062 25.179688 -51.6875 28.359375 -52.96875 C 31.546875 -54.257812 35.140625 -54.90625 39.140625 -54.90625 Z M 39.140625 -54.90625 "/></g></g></g><g fill="#000000" fill-opacity="1"><g transform="translate(769.976001, 332.570213)"><g><path d="M 59.375 -26.84375 C 59.375 -25.957031 59.304688 -24.703125 59.171875 -23.078125 L 16.578125 -23.078125 C 17.316406 -19.078125 19.257812 -15.90625 22.40625 -13.5625 C 25.5625 -11.226562 29.476562 -10.0625 34.15625 -10.0625 C 40.125 -10.0625 45.039062 -12.03125 48.90625 -15.96875 L 55.71875 -8.140625 C 53.28125 -5.222656 50.195312 -3.015625 46.46875 -1.515625 C 42.738281 -0.0234375 38.535156 0.71875 33.859375 0.71875 C 27.890625 0.71875 22.632812 -0.46875 18.09375 -2.84375 C 13.550781 -5.21875 10.039062 -8.519531 7.5625 -12.75 C 5.09375 -16.988281 3.859375 -21.785156 3.859375 -27.140625 C 3.859375 -32.429688 5.0625 -37.191406 7.46875 -41.421875 C 9.875 -45.660156 13.210938 -48.96875 17.484375 -51.34375 C 21.753906 -53.71875 26.566406 -54.90625 31.921875 -54.90625 C 37.210938 -54.90625 41.941406 -53.734375 46.109375 -51.390625 C 50.273438 -49.054688 53.523438 -45.769531 55.859375 -41.53125 C 58.203125 -37.289062 59.375 -32.394531 59.375 -26.84375 Z M 31.921875 -44.734375 C 27.859375 -44.734375 24.421875 -43.53125 21.609375 -41.125 C 18.796875 -38.71875 17.082031 -35.515625 16.46875 -31.515625 L 47.28125 -31.515625 C 46.738281 -35.453125 45.078125 -38.640625 42.296875 -41.078125 C 39.515625 -43.515625 36.054688 -44.734375 31.921875 -44.734375 Z M 31.921875 -44.734375 "/></g></g></g><g fill="#000000" fill-opacity="1"><g transform="translate(833.193661, 332.570213)"><g><path d="M 33.25 0.71875 C 27.625 0.71875 22.570312 -0.46875 18.09375 -2.84375 C 13.625 -5.21875 10.132812 -8.519531 7.625 -12.75 C 5.113281 -16.988281 3.859375 -21.785156 3.859375 -27.140625 C 3.859375 -32.492188 5.113281 -37.269531 7.625 -41.46875 C 10.132812 -45.675781 13.609375 -48.96875 18.046875 -51.34375 C 22.484375 -53.71875 27.550781 -54.90625 33.25 -54.90625 C 38.601562 -54.90625 43.296875 -53.816406 47.328125 -51.640625 C 51.359375 -49.472656 54.390625 -46.359375 56.421875 -42.296875 L 46.671875 -36.609375 C 45.109375 -39.109375 43.15625 -40.984375 40.8125 -42.234375 C 38.476562 -43.492188 35.921875 -44.125 33.140625 -44.125 C 28.398438 -44.125 24.46875 -42.582031 21.34375 -39.5 C 18.226562 -36.414062 16.671875 -32.296875 16.671875 -27.140625 C 16.671875 -21.992188 18.210938 -17.878906 21.296875 -14.796875 C 24.378906 -11.710938 28.328125 -10.171875 33.140625 -10.171875 C 35.921875 -10.171875 38.476562 -10.796875 40.8125 -12.046875 C 43.15625 -13.296875 45.109375 -15.175781 46.671875 -17.6875 L 56.421875 -12 C 54.328125 -7.925781 51.257812 -4.785156 47.21875 -2.578125 C 43.1875 -0.378906 38.53125 0.71875 33.25 0.71875 Z M 33.25 0.71875 "/></g></g></g><g fill="#000000" fill-opacity="1"><g transform="translate(892.244269, 332.570213)"><g><path d="M 40.96875 -2.953125 C 39.476562 -1.734375 37.664062 -0.816406 35.53125 -0.203125 C 33.394531 0.410156 31.140625 0.71875 28.765625 0.71875 C 22.804688 0.71875 18.195312 -0.835938 14.9375 -3.953125 C 11.6875 -7.078125 10.0625 -11.625 10.0625 -17.59375 L 10.0625 -43.71875 L 1.125 -43.71875 L 1.125 -53.890625 L 10.0625 -53.890625 L 10.0625 -66.296875 L 22.78125 -66.296875 L 22.78125 -53.890625 L 37.3125 -53.890625 L 37.3125 -43.71875 L 22.78125 -43.71875 L 22.78125 -17.890625 C 22.78125 -15.242188 23.421875 -13.226562 24.703125 -11.84375 C 25.992188 -10.457031 27.859375 -9.765625 30.296875 -9.765625 C 33.140625 -9.765625 35.515625 -10.507812 37.421875 -12 Z M 40.96875 -2.953125 "/></g></g></g><g fill="#000000" fill-opacity="1"><g transform="translate(935.384003, 332.570213)"><g/></g></g></svg>