<?xml version="1.0" standalone="no"?>
<!DOCTYPE svg PUBLIC "-//W3C//DTD SVG 20010904//EN"
 "http://www.w3.org/TR/2001/REC-SVG-20010904/DTD/svg10.dtd">
<svg version="1.0" xmlns="http://www.w3.org/2000/svg"
 width="225.000000pt" height="225.000000pt" viewBox="0 0 225.000000 225.000000"
 preserveAspectRatio="xMidYMid meet">

<g transform="translate(0.000000,225.000000) scale(0.100000,-0.100000)"
fill="#000000" stroke="none">
<path d="M980 1896 c-173 -36 -312 -117 -444 -258 l-86 -91 0 154 0 153 -55
-54 -55 -54 0 -198 0 -198 193 0 193 0 54 55 54 54 -159 3 -159 3 109 111 c85
86 126 119 182 148 199 102 439 102 636 -1 108 -56 230 -182 285 -293 44 -91
72 -189 72 -257 l0 -43 56 0 57 0 -7 63 c-23 204 -105 369 -255 509 -92 86
-182 137 -306 173 -111 32 -268 41 -365 21z"/>
<path d="M345 1053 c26 -248 165 -471 373 -597 144 -87 337 -130 495 -109 199
27 333 96 485 249 l102 104 0 -152 0 -152 55 54 55 55 -2 195 -3 195 -189 3
-190 2 -53 -52 -54 -53 158 -5 158 -5 -110 -110 c-116 -117 -172 -154 -295
-195 -93 -31 -253 -38 -354 -15 -188 41 -369 184 -454 356 -42 86 -72 192 -72
262 l0 37 -56 0 -56 0 7 -67z"/>
</g>
</svg>
